HIERARCHY
ROOT root
{
	OFFSET 0.000000 0.000000 0.000000
	CHANNELS 6 Xposition Yposition Zposition Zrotation Yrotation Xrotation
	JOINT lhip
	{
		OFFSET 0.058581 -0.082280 -0.017664
		CHANNELS 3 Zrotation Yrotation Xrotation
		JOINT lknee
		{
			OFFSET 0.043451 -0.386469 0.008037
			CHANNELS 3 Zrotation Yrotation Xrotation
			JOINT lankle
			{
				OFFSET -0.014790 -0.426874 -0.037428
				CHANNELS 3 Zrotation Yrotation Xrotation
				JOINT ltoe
				{
					OFFSET 0.041054 -0.060286 0.122042
					CHANNELS 3 Zrotation Yrotation Xrotation
					End Site
					{
						OFFSET 0.000000 0.000000 0.000000
					}
				}
			}
		}
	}
	JOINT rhip
	{
		OFFSET -0.060310 -0.090513 -0.013543
		CHANNELS 3 Zrotation Yrotation Xrotation
		JOINT rknee
		{
			OFFSET -0.043257 -0.383688 -0.004843
			CHANNELS 3 Zrotation Yrotation Xrotation
			JOINT rankle
			{
				OFFSET 0.019056 -0.420046 -0.034562
				CHANNELS 3 Zrotation Yrotation Xrotation
				JOINT rtoe
				{
					OFFSET -0.034840 -0.062106 0.130323
					CHANNELS 3 Zrotation Yrotation Xrotation
					End Site
					{
						OFFSET 0.000000 0.000000 0.000000
					}
				}
			}
		}
	}
	JOINT lowerback
	{
		OFFSET 0.004439 0.124404 -0.038385
		CHANNELS 3 Zrotation Yrotation Xrotation
		JOINT upperback
		{
			OFFSET 0.004488 0.137956 0.026820
			CHANNELS 3 Zrotation Yrotation Xrotation
			JOINT chest
			{
				OFFSET -0.002265 0.056032 0.002855
				CHANNELS 3 Zrotation Yrotation Xrotation
				JOINT lowerneck
				{
					OFFSET -0.013390 0.211636 -0.033468
					CHANNELS 3 Zrotation Yrotation Xrotation
					JOINT upperneck
					{
						OFFSET 0.010113 0.088937 0.050410
						CHANNELS 3 Zrotation Yrotation Xrotation
						End Site
						{
							OFFSET 0.000000 0.000000 0.000000
						}
					}
				}
				JOINT lclavicle
				{
					OFFSET 0.071702 0.114000 -0.018898
					CHANNELS 3 Zrotation Yrotation Xrotation
					JOINT lshoulder
					{
						OFFSET 0.122921 0.045205 -0.019046
						CHANNELS 3 Zrotation Yrotation Xrotation
						JOINT lelbow
						{
							OFFSET 0.255332 -0.015649 -0.022946
							CHANNELS 3 Zrotation Yrotation Xrotation
							JOINT lwrist
							{
								OFFSET 0.265709 0.012698 -0.007375
								CHANNELS 3 Zrotation Yrotation Xrotation
								End Site
								{
									OFFSET 0.000000 0.000000 0.000000
								}
							}
						}
					}
				}
				JOINT rclavicle
				{
					OFFSET -0.082954 0.112472 -0.023707
					CHANNELS 3 Zrotation Yrotation Xrotation
					JOINT rshoulder
					{
						OFFSET -0.113228 0.046853 -0.008472
						CHANNELS 3 Zrotation Yrotation Xrotation
						JOINT relbow
						{
							OFFSET -0.260127 -0.014369 -0.031269
							CHANNELS 3 Zrotation Yrotation Xrotation
							JOINT rwrist
							{
								OFFSET -0.269108 0.006794 -0.006027
								CHANNELS 3 Zrotation Yrotation Xrotation
								End Site
								{
									OFFSET 0.000000 0.000000 0.000000
								}
							}
						}
					}
				}
			}
		}
	}
}
MOTION
Frames: 11
Frame Time: 0.033333
2.366698 0.722411 0.997148 -89.359904 -0.102393 83.386445 0.374878 0.231770 1.529705 -2.561577 -6.626701 8.126627 1.900055 10.982084 -10.479442 0.000000 -0.000000 0.000000 -0.803370 -0.781602 -1.468491 -1.471888 -0.047002 14.396308 1.772209 -9.796909 -14.758505 0.000000 -0.000000 0.000000 -2.034090 0.555606 5.043053 1.277225 -4.051326 8.646320 0.387338 -1.284239 -3.352174 -0.661555 2.444124 -6.940770 1.305239 -1.912423 -4.166329 -27.950533 -9.820096 5.680217 -54.651884 -3.247732 12.160491 1.780314 -20.097676 5.873531 -3.840921 -7.166019 6.258922 27.626598 15.575332 7.036430 52.002932 3.902211 17.472096 -2.028798 27.504061 13.447706 0.729424 6.390246 13.519743 
2.368071 0.722942 0.996981 -89.244593 -0.114822 83.622393 0.362938 0.184395 1.140637 -2.556492 -6.744920 8.159653 1.874135 11.095327 -10.394124 0.000000 -0.000000 0.000000 -0.745714 -0.775203 -1.974626 -1.523138 -0.077451 14.717684 1.542293 -9.932822 -14.743028 0.000000 -0.000000 0.000000 -1.832758 0.575105 5.151278 1.272720 -3.962495 8.564066 0.162982 -1.082235 -3.646331 -0.645618 2.027815 -7.207700 1.286989 -1.950418 -4.176770 -28.571009 -9.969478 5.542322 -54.070204 -3.363547 12.383885 1.679530 -19.522396 5.689408 -4.308939 -6.748162 6.989240 27.701239 15.695629 7.017362 51.770292 3.547249 18.062817 -1.736701 26.871514 14.786499 0.922929 6.363160 15.119562 
2.369570 0.723246 0.997243 -89.139905 -0.236730 83.941290 0.141866 0.157625 0.757225 -2.390113 -6.989787 7.969452 2.289365 11.440474 -10.383164 0.000000 -0.000000 0.000000 -0.694206 -0.605515 -2.516377 -1.651771 0.097329 14.880066 1.451876 -10.296847 -14.752152 0.000000 -0.000000 0.000000 -1.604612 0.582014 5.583392 1.078226 -3.586787 7.673664 -0.209291 -0.800882 -3.907524 -0.602225 1.297131 -7.171970 1.480463 -1.882515 -4.020706 -29.157251 -9.608583 4.774805 -53.483479 -3.448440 13.315134 1.772066 -18.844373 6.292333 -4.608410 -6.420855 8.075740 27.857905 15.258641 6.563492 51.962975 2.943485 18.701749 -1.361542 25.900133 15.268698 1.338677 6.380697 15.116630 
2.369657 0.723071 0.997324 -88.807600 -0.434157 84.580204 -0.222830 -0.021969 0.309732 -2.108837 -7.309307 7.288408 2.482242 11.554176 -9.999866 0.000000 -0.000000 0.000000 -0.716027 -0.609350 -3.137438 -1.867603 0.288525 14.753849 1.294498 -10.597949 -14.774209 0.000000 -0.000000 0.000000 -1.471372 0.794760 4.922227 0.857467 -3.533796 7.615613 -0.679381 -0.603141 -4.337953 -0.679096 0.905140 -7.232050 1.747505 -1.877502 -3.563894 -29.299708 -9.001087 3.956266 -53.275039 -3.864584 13.927451 2.089131 -18.437882 6.451583 -5.809487 -5.996058 9.084591 27.929056 14.706984 6.198370 52.392546 2.293584 19.255709 -0.794559 24.661315 16.005746 2.979156 6.011331 15.355576 
2.369523 0.723367 0.997480 -88.543332 -0.525413 84.751729 -0.408633 -0.061715 0.330803 -1.883896 -7.663428 6.782475 2.691473 11.575330 -9.904593 0.000000 -0.000000 0.000000 -0.759746 -0.730213 -3.234320 -1.885307 0.242094 14.601093 1.216247 -10.628713 -14.864356 0.000000 -0.000000 0.000000 -1.525210 0.902163 4.712673 0.776925 -3.534122 7.844846 -0.736107 -0.634774 -4.597335 -0.771555 0.586734 -7.380481 1.956353 -1.960325 -3.898184 -29.387074 -9.040190 3.897550 -53.155169 -3.994980 14.110157 2.271453 -18.801193 6.231207 -5.813453 -6.165031 8.964655 28.090818 14.766350 6.239872 52.511903 1.970375 19.272797 -0.834710 24.459749 15.585037 3.253617 6.003179 14.791135 
2.369740 0.723531 0.997298 -88.034389 -0.649269 84.784561 -0.557531 -0.138327 0.336944 -1.857910 -7.906586 6.548047 2.584047 11.334098 -9.663118 0.000000 -0.000000 0.000000 -0.763435 -0.772372 -3.404793 -2.004075 0.074596 14.911747 0.918765 -10.668327 -14.648153 0.000000 -0.000000 0.000000 -1.766913 0.861575 4.609817 0.769351 -3.634794 8.353325 -0.681507 -0.736244 -4.705567 -0.779072 0.485702 -8.103178 2.130047 -2.036201 -4.785343 -29.229206 -9.428651 4.008889 -53.263341 -4.435710 13.957952 2.421767 -19.398155 5.790008 -5.699053 -6.694467 8.374826 27.983499 14.967913 6.448220 52.606934 2.063636 19.005400 -0.783075 24.923066 14.904985 3.443862 6.247460 13.540283 
2.370484 0.724018 0.996622 -86.970970 -0.531059 84.590198 -0.433160 -0.458934 0.105525 -1.946065 -8.272187 6.987800 2.291709 10.938652 -9.727131 0.000000 -0.000000 0.000000 -0.642945 -1.026760 -3.307979 -1.993236 -0.432223 15.229113 0.626532 -10.922854 -14.544097 0.000000 -0.000000 0.000000 -1.892860 0.646766 5.239109 0.866572 -4.138974 8.322243 -0.358267 -1.021190 -4.649287 -0.784152 0.516346 -9.099234 2.150057 -2.081302 -5.359487 -29.193047 -10.293477 4.574582 -53.297941 -4.568767 13.693360 2.254127 -20.139843 5.925031 -5.105621 -6.978605 7.834501 28.028847 15.512028 6.842656 52.274595 2.081215 18.758409 -0.826831 25.532226 15.083110 3.073425 6.307039 13.299324 
2.372241 0.724916 0.996299 -86.284278 -0.509677 84.613536 -0.373957 -0.702388 -0.394572 -2.119428 -8.633603 7.456486 1.821186 10.603122 -9.522527 0.000000 -0.000000 0.000000 -0.501584 -0.911145 -3.605078 -2.089708 -0.789110 15.633527 0.436677 -11.200870 -14.610821 0.000000 -0.000000 0.000000 -2.014819 0.469997 5.860132 0.900082 -4.313992 8.121922 -0.179270 -1.157807 -4.609328 -0.854469 0.537040 -9.927246 2.574664 -2.224043 -6.198355 -29.053232 -11.243170 4.663904 -53.351951 -4.912380 13.601612 1.954927 -19.842995 4.939128 -5.098964 -7.421641 7.103495 27.963637 16.132405 6.874898 52.236350 2.107057 18.621162 -0.946494 25.511385 14.688584 3.114900 6.761207 13.130034 
2.375838 0.725425 0.995827 -85.108465 -0.312442 84.919836 -0.156829 -1.337675 -1.852117 -2.407848 -8.756430 8.781245 1.705106 10.407990 -9.609138 0.000000 -0.000000 0.000000 -0.354548 -1.121474 -4.336242 -2.004681 -1.162674 16.113834 0.081135 -11.798967 -14.643095 0.000000 -0.000000 0.000000 -1.722541 0.078914 6.953765 0.852169 -4.690352 6.892310 -0.117264 -1.234538 -4.512862 -0.636698 0.298786 -10.747655 2.768604 -2.397175 -6.189269 -29.353644 -11.919636 4.701942 -52.927981 -5.237361 14.047775 1.659231 -19.622474 5.156165 -5.182699 -7.097595 6.208089 27.947016 16.349642 6.691002 52.225118 1.973487 18.767855 -1.107287 25.677454 14.449274 3.153305 6.155231 11.678638 
2.376649 0.726250 0.996108 -84.452402 -0.215405 85.518231 0.080535 -1.631251 -2.922561 -2.596766 -8.813565 9.261205 1.422134 10.080647 -9.463539 0.000000 -0.000000 0.000000 -0.197048 -1.602913 -4.956220 -1.990571 -1.179251 16.025560 -0.123747 -12.025937 -14.555266 0.000000 -0.000000 0.000000 -1.565988 0.379711 6.862892 0.808646 -4.886552 6.382908 -0.183463 -1.458341 -4.597751 -0.357925 -0.038081 -11.042454 2.959975 -2.637283 -5.946674 -29.580118 -12.121325 4.367771 -52.639991 -5.775263 14.664271 1.700324 -18.995824 5.455154 -5.079914 -6.423373 6.346850 28.066274 16.151583 6.409920 52.317244 1.921415 19.012260 -1.043387 25.516019 14.090520 3.100040 5.623130 10.646541 
2.376778 0.726291 0.996088 -84.340117 -0.372409 85.999218 -0.207517 -1.797929 -3.247605 -2.272413 -8.838656 8.795760 1.716615 10.168022 -9.383751 0.000000 -0.000000 0.000000 -0.363450 -1.614433 -5.524660 -1.942375 -1.191929 16.043530 -0.082041 -12.108412 -14.531517 0.000000 -0.000000 0.000000 -1.580197 0.566280 6.620833 0.700880 -4.690661 5.988430 -0.351022 -1.541411 -4.594859 -0.193033 -0.192569 -11.257915 3.242402 -2.823695 -5.523680 -29.603501 -11.871555 3.970074 -52.616645 -6.171150 14.698987 2.010097 -18.989037 5.058272 -5.314633 -6.594033 6.306803 28.059602 15.962838 6.247171 52.539478 1.926509 19.330319 -0.876661 25.357928 14.355302 3.091610 5.913519 10.790989 
